<svg width="51" height="51" viewBox="0 0 51 51" fill="none" xmlns="http://www.w3.org/2000/svg">
<path d="M50.2 25.9876C50.2 12.1081 38.9568 0.863525 25.1 0.863525C11.2338 0.863525 0 12.1081 0 25.9876C0 38.5244 9.17562 48.9195 21.1781 50.8022V33.2515H14.8043V25.9891H21.1781V20.4508C21.1781 14.1557 24.9196 10.6792 30.6549 10.6792C33.4018 10.6792 36.2773 11.1691 36.2773 11.1691V17.3512H33.1069C29.9945 17.3512 29.0219 19.2904 29.0219 21.2768V25.9876H35.9824L34.8639 33.25H29.0219V50.8007C41.015 48.9179 50.2 38.5229 50.2 25.986V25.9876Z" fill="white"/>
</svg>
