<svg width="51" height="51" viewBox="0 0 51 51" fill="none" xmlns="http://www.w3.org/2000/svg">
<path d="M33.5437 25.8329C33.5437 27.9024 32.7173 29.8871 31.2464 31.3504C29.7754 32.8137 27.7803 33.6358 25.7 33.6358C23.6197 33.6358 21.6246 32.8137 20.1536 31.3504C18.6826 29.8871 17.8562 27.9024 17.8562 25.8329C17.8562 25.3881 17.9033 24.9538 17.9843 24.5324H15.2416V34.9285C15.2416 35.6516 15.8299 36.2368 16.5568 36.2368H34.8458C35.1941 36.2361 35.528 36.098 35.774 35.8527C36.0201 35.6074 36.1583 35.275 36.1583 34.9285V24.5324H33.4156C33.4967 24.9538 33.5437 25.3881 33.5437 25.8329ZM25.7 31.0348C26.3869 31.0347 27.067 30.8999 27.7015 30.6383C28.336 30.3766 28.9125 29.9932 29.3981 29.5099C29.8837 29.0266 30.2688 28.4529 30.5315 27.8216C30.7942 27.1902 30.9293 26.5136 30.9292 25.8303C30.929 25.147 30.7935 24.4704 30.5305 23.8392C30.2675 23.208 29.8821 22.6345 29.3963 22.1514C28.9104 21.6684 28.3337 21.2852 27.6991 21.0239C27.0644 20.7626 26.3842 20.6282 25.6974 20.6283C24.3102 20.6287 22.9799 21.1772 21.9992 22.1533C21.0186 23.1293 20.4679 24.4529 20.4682 25.8329C20.4685 27.2129 21.0199 28.5362 22.0011 29.5118C22.9822 30.4873 24.3128 31.0352 25.7 31.0348ZM31.975 20.3708H35.1099C35.3181 20.3708 35.5179 20.2887 35.6654 20.1425C35.8129 19.9962 35.8962 19.7977 35.8969 19.5905V16.472C35.8969 16.2643 35.8139 16.0652 35.6664 15.9184C35.5188 15.7716 35.3186 15.6891 35.1099 15.6891H31.975C31.7663 15.6891 31.5661 15.7716 31.4185 15.9184C31.2709 16.0652 31.188 16.2643 31.188 16.472V19.5905C31.1906 20.0197 31.5436 20.3708 31.975 20.3708ZM25.7 0.863525C19.043 0.863525 12.6588 3.49422 7.9516 8.17688C3.24443 12.8595 0.599976 19.2106 0.599976 25.8329C0.599976 32.4552 3.24443 38.8062 7.9516 43.4889C12.6588 48.1716 19.043 50.8022 25.7 50.8022C28.9962 50.8022 32.2601 50.1564 35.3053 48.9016C38.3506 47.6467 41.1176 45.8075 43.4484 43.4889C45.7791 41.1703 47.628 38.4177 48.8894 35.3882C50.1508 32.3588 50.8 29.1119 50.8 25.8329C50.8 22.5539 50.1508 19.3069 48.8894 16.2775C47.628 13.2481 45.7791 10.4955 43.4484 8.17688C41.1176 5.85826 38.3506 4.01903 35.3053 2.7642C32.2601 1.50938 28.9962 0.863525 25.7 0.863525ZM38.7729 35.9481C38.7729 37.5373 37.4656 38.8378 35.8681 38.8378H15.5319C13.9344 38.8378 12.6271 37.5373 12.6271 35.9481V15.7177C12.6271 14.1285 13.9344 12.828 15.5319 12.828H35.8681C37.4656 12.828 38.7729 14.1285 38.7729 15.7177V35.9481Z" fill="white"/>
</svg>
