<svg width="51" height="51" viewBox="0 0 51 51" fill="none" xmlns="http://www.w3.org/2000/svg">
<path d="M25.2999 0.863525C11.4389 0.863525 0.199951 12.044 0.199951 25.8329C0.199951 39.6218 11.4389 50.8022 25.2999 50.8022C39.161 50.8022 50.3999 39.6218 50.3999 25.8329C50.3999 12.044 39.161 0.863525 25.2999 0.863525ZM37.3625 19.6853C37.3793 19.9473 37.3793 20.2204 37.3793 20.4879C37.3793 28.6698 31.1155 38.0946 19.6693 38.0946C16.1396 38.0946 12.8676 37.0747 10.1111 35.319C10.6153 35.3747 11.0972 35.397 11.6126 35.397C14.526 35.397 17.2041 34.4161 19.3387 32.7552C16.6046 32.6995 14.3075 30.9159 13.5231 28.4636C14.4812 28.6029 15.344 28.6029 16.3301 28.3521C14.9223 28.0676 13.6569 27.307 12.7489 26.1995C11.841 25.0921 11.3464 23.7061 11.3493 22.277V22.199C12.1729 22.6616 13.1421 22.9458 14.1562 22.9848C13.3037 22.4196 12.6046 21.6539 12.1208 20.7556C11.6371 19.8572 11.3836 18.854 11.3829 17.8349C11.3829 16.6812 11.6854 15.6278 12.2289 14.7137C13.7915 16.6273 15.7414 18.1924 17.9518 19.3072C20.1623 20.4221 22.5838 21.0617 25.059 21.1846C24.1794 16.9766 27.3393 13.5711 31.1379 13.5711C32.9308 13.5711 34.5444 14.318 35.6817 15.5219C37.088 15.2599 38.4326 14.736 39.6316 14.0337C39.1666 15.4661 38.1917 16.6756 36.8975 17.4392C38.1525 17.3054 39.3627 16.9598 40.4832 16.4749C39.6372 17.7123 38.5783 18.8103 37.3625 19.6853Z" fill="white"/>
</svg>
