<svg width="51" height="51" viewBox="0 0 51 51" fill="none" xmlns="http://www.w3.org/2000/svg">
<path d="M25.5 0.863525C11.6375 0.863525 0.400024 12.0425 0.400024 25.8329C0.400024 39.6233 11.6375 50.8022 25.5 50.8022C39.3625 50.8022 50.6 39.6233 50.6 25.8329C50.6 12.0425 39.3625 0.863525 25.5 0.863525ZM35.1531 29.0347C35.1531 29.0347 37.3728 31.2143 37.9193 32.2261C37.935 32.2469 37.9428 32.2677 37.948 32.2781C38.1703 32.65 38.2226 32.9388 38.1128 33.1546C37.9297 33.5136 37.3022 33.6904 37.0878 33.706H33.166C32.8941 33.706 32.3241 33.6358 31.6338 33.1624C31.1031 32.7931 30.5801 32.1871 30.0703 31.5966C29.3095 30.7175 28.6506 29.958 27.9865 29.958C27.9021 29.9579 27.8183 29.9711 27.7381 29.997C27.2361 30.1583 26.5929 30.871 26.5929 32.7697C26.5929 33.3627 26.1223 33.7034 25.7902 33.7034H23.994C23.3822 33.7034 20.195 33.4902 17.3713 30.5276C13.9148 26.8993 10.8034 19.6218 10.7773 19.5541C10.5812 19.0834 10.9865 18.8311 11.4283 18.8311H15.3894C15.9176 18.8311 16.0901 19.151 16.2104 19.4345C16.3516 19.7648 16.8693 21.0783 17.719 22.5557C19.0969 24.9642 19.9414 25.9421 20.6186 25.9421C20.7456 25.9406 20.8703 25.9085 20.982 25.8485C21.8657 25.3595 21.701 22.2253 21.6618 21.5751C21.6618 21.4528 21.6592 20.1732 21.2069 19.5593C20.8827 19.1146 20.331 18.9455 19.9963 18.8831C20.1318 18.6971 20.3102 18.5464 20.5166 18.4435C21.1232 18.1418 22.2161 18.0976 23.3012 18.0976H23.9051C25.0817 18.1132 25.385 18.1886 25.8112 18.2953C26.674 18.5007 26.6923 19.0547 26.6164 20.9509C26.5929 21.4893 26.5694 22.0979 26.5694 22.8158C26.5694 22.9718 26.5615 23.1383 26.5615 23.3151C26.5354 24.2801 26.504 25.3751 27.189 25.8251C27.2784 25.8808 27.3816 25.9106 27.4871 25.9109C27.725 25.9109 28.4414 25.9109 30.3814 22.5999C30.9797 21.5341 31.4997 20.4267 31.9371 19.2862C31.9763 19.2186 32.0914 19.0105 32.2273 18.9299C32.3277 18.879 32.4389 18.8531 32.5515 18.8545H37.2081C37.7153 18.8545 38.0631 18.9299 38.1284 19.125C38.2435 19.4345 38.1075 20.3786 35.9819 23.2423L35.0328 24.4882C33.1058 27.0007 33.1058 27.1282 35.1531 29.0347Z" fill="white"/>
</svg>
